<svg data-v-0dd9719b="" version="1.0" xmlns="http://www.w3.org/2000/svg" xmlns:xlink="http://www.w3.org/1999/xlink" width="100%" height="100%" viewBox="0 0 340.000000 250.000000" preserveAspectRatio="xMidYMid meet" color-interpolation-filters="sRGB" style="margin: auto;"> <rect data-v-0dd9719b="" x="0" y="0" width="100%" height="100%" fill="#fff" fill-opacity="1" class="background"></rect> <rect data-v-0dd9719b="" x="0" y="0" width="100%" height="100%" fill="url(#watermark)" fill-opacity="1" class="watermarklayer"></rect> <g data-v-0dd9719b="" fill="#333" class="icon-text-wrapper icon-svg-group iconsvg" transform="translate(48.18500518798828,97.55874824523926)"><g class="iconsvg-imagesvg" transform="translate(0,0.9207420349121094)"><g><rect fill="#333" fill-opacity="0" stroke-width="2" x="0" y="0" width="60" height="53.041018387553045" class="image-rect"></rect> <svg x="0" y="0" width="60" height="53.041018387553045" filtersec="colorsb6004950361" class="image-svg-svg primary" style="overflow: visible;"><svg xmlns="http://www.w3.org/2000/svg" viewBox="0 0 113.12000274658203 100"><path fill="#fb4516" d="M38.21 74.66L25.88 50l12.33-24.66h.05l2.98-6.08h-.04l1.78-3.55h.01L50.72 0h-6.41L19.37 50l15.31 30.74h33.87l2.99-6.08H38.21z"></path><path fill="#01e786" d="M28.58 93.92L6.62 50 31.57 0h-6.52L0 50l25.05 50h34.03l2.99-6.08H28.58z"></path><path fill="#01e786" d="M75.02 25.34L87.35 50 75.02 74.66h-.19l-2.98 6.08h.07l-1.77 3.55h-.05l-2.99 6.08h.05l-1.77 3.55h-.03L62.38 100h6.43l25.05-50-15.42-30.74h-33.9l-2.99 6.08h33.47z"></path><path fill="#008efa" d="M79.78 15.71L96.98 50l-25.06 50h6.52l25.06-50L83.31 9.63H49.27l-2.98 6.08h33.49z"></path><path fill="#ffce1c" d="M33.34 84.29L16.25 50 41.2 0h-6.52L9.63 50l20.29 40.37h33.89l2.99-6.08H33.34z"></path><path fill="#8707d2" d="M54.01 0l-2.99 6.08h33.63L106.61 50l-25.06 50h6.63l24.94-50L88.18 0H54.01z"></path></svg></svg> <!----></g></g> <g transform="translate(67,0)"><g data-gra="path-name" fill-rule="" class="tp-name iconsvg-namesvg" transform="translate(0,0)"><g transform="scale(1)"><g><path d="M19.13-31.26L19.13-26.49 13.97-26.49 13.97-34.2 41.46-34.2 41.46-26.67 36.17-26.67 36.17-31.26 19.13-31.26ZM40.72-20.14L36.82-17.43Q33.76-22.37 28.85-26.88L28.85-26.88 32.14-29.03Q38.53-23.34 40.72-20.14L40.72-20.14ZM16.81-17.34L16.81-17.34Q15.68-18.83 14.86-19.59 14.05-20.36 14.05-20.4L14.05-20.4Q18.3-23.07 21.67-28.55L21.67-28.55 26.36-27.06Q23.25-21.98 16.81-17.34ZM13.75-31.92L11.47-28.24Q7.75-31.17 3.59-33.36L3.59-33.36 5.6-36.34Q11.47-33.67 13.75-31.92L13.75-31.92ZM12.3-19.83L10.07-16.2Q6.26-19.31 1.71-21.67L1.71-21.67 3.59-24.61Q9.5-21.94 12.3-19.83L12.3-19.83ZM6.31 3.42L6.31 3.42 2.5-0.22Q5.95-6.13 9.68-14.49L9.68-14.49 13.27-10.77Q10.42-4.29 6.31 3.42ZM30.47-7.05L30.47 2.89 24.78 2.89 24.78-7.09Q22.24-2.85 14.36 1.49L14.36 1.49Q13.4-0.04 11.95-1.71L11.95-1.71Q18.17-4.68 22.77-12.35L22.77-12.35 13.79-12.35 13.79-15.5 24.78-15.5 24.78-20.05 30.47-20.05 30.47-15.5 41.55-15.5 41.55-12.35 32.44-12.35Q36.91-5.08 42.3-2.01L42.3-2.01Q40.72-0.26 39.63 1.49L39.63 1.49Q32.79-3.2 30.47-7.05L30.47-7.05ZM47.29-1.84L47.29-1.84 46.06-5.82Q48.69-6.57 51.84-7.75L51.84-7.75 51.84-22.51 46.59-22.51 46.59-25.96 51.84-25.96 51.84-35.9 57.49-35.9 57.49-25.96 62.57-25.96 62.57-22.51 57.49-22.51 57.49-9.76 57.31-9.72 57.88-9.94Q59.33-10.42 62.09-11.52L62.09-11.52 62.79-8.01Q55.08-4.86 47.29-1.84ZM63.27 3.33L63.27 3.33Q60.03 1.01 58.8 0.44L58.8 0.44Q60.55-1.93 61.71-5.5 62.88-9.06 63.18-12.89 63.49-16.73 63.49-20.58L63.49-20.58 63.49-35.16 69.09-35.16 69.09-20.58Q69.09-16.46 68.76-12.41 68.44-8.36 67.32-4.64 66.2-0.92 63.27 3.33ZM77.37-32.97L77.37-2.45 71.98-2.45 71.98-32.97 77.37-32.97ZM86.08-35.38L86.08 2.63 80.35 2.63 80.35-35.38 86.08-35.38ZM115.07-14.23L124.87-14.23 124.87-25.35 115.07-25.35 115.07-14.23ZM99.48-14.23L109.24-14.23 109.24-25.35 99.48-25.35 99.48-14.23ZM115.07-10.77L115.07 3.15 109.24 3.15 109.24-10.77 99.48-10.77 99.48-8.19 93.83-8.19 93.83-28.81 109.24-28.81 109.24-36.43 115.07-36.43 115.07-28.81 130.7-28.81 130.7-8.41 124.87-8.41 124.87-10.77 115.07-10.77ZM141.51-15.02L141.51-15.02 139.76-15.06Q139.67-15.76 139.32-16.79 138.97-17.82 138.97-17.86L138.97-17.86 142.13-17.82Q143.22-17.82 143.66-17.86L143.66-17.86Q143.66-17.91 143.68-17.93 143.7-17.95 143.7-21.85L143.7-21.85Q140.68-21.37 137.62-20.93L137.62-20.93 136.96-24.17Q137.97-24.26 143.7-25.09L143.7-25.09 143.7-29.34 137.53-29.34 137.53-32.4 143.7-32.4 143.7-36.43 149.04-36.43 149.04-32.4 154.34-32.4 154.34-29.34 149.04-29.34 149.04-25.88Q150.23-26.01 154.52-26.75L154.52-26.75 154.65-23.64 149.04-22.68 149.04-18.74Q149.04-16.38 147.25-15.7 145.45-15.02 141.51-15.02ZM138.89 3.5L138.89 3.5Q138.45 2.19 137.84 1.14L137.84 1.14Q137.35 0.35 137.35 0.31L137.35 0.31Q143.35-0.92 146.55-3.09 149.74-5.25 151.41-9.15L151.41-9.15 138.71-9.15 138.71-12.22 152.33-12.22Q152.63-13.62 152.81-15.06L152.81-15.06 154.21-15.06Q153.33-16.55 152.77-17.25L152.77-17.25Q152.37-17.69 152.37-17.73L152.37-17.73 152.46-17.65Q155.44-19.05 157.58-22.51L157.58-22.51 153.73-24.91 155.83-27.67Q158.46-26.14 158.76-25.92L158.76-25.92Q159.07-26.97 159.38-29.47L159.38-29.47 153.73-29.47 153.73-32.36 159.64-32.36 159.77-36.43 165.11-36.43Q165.07-34.59 164.94-32.36L164.94-32.36 167.74-32.4 173.08-32.4Q172.95-28.77 172.95-26.05L172.95-26.05Q172.95-18.48 173.52-18.48L173.52-18.48Q173.34-18.48 173.34-18.74L173.34-18.74Q173.34-18.96 173.52-19.62 173.69-20.27 173.83-23.12L173.83-23.12Q176.02-21.5 176.74-21.15 177.46-20.8 178.34-20.54L178.34-20.54Q178.16-18 177.13-16.73 176.1-15.46 173.39-15.46L173.39-15.46Q170.41-15.46 169.32-17.23 168.22-19 167.96-21.98 167.7-24.96 167.7-29.47L167.7-29.47 164.68-29.47Q164.32-26.31 163.36-23.21L163.36-23.21Q166.82-21.06 168.4-19.75L168.4-19.75 165.99-16.33Q163.14-18.83 161.61-19.83L161.61-19.83Q160.3-17.78 155.17-15.06L155.17-15.06 158.59-15.06Q158.46-14.05 158.06-12.22L158.06-12.22 172.56-12.22Q172.56-4.07 172.91-4.07L172.91-4.07Q173.08-4.07 173.34-6.13L173.34-6.13Q174-11.52 174.05-11.47L174.05-11.47Q173.04-0.22 171.11 1.14L171.11 1.14Q169.4 2.76 166.51 2.8L166.51 2.8Q165.68 2.85 164.54 2.85L164.54 2.85Q162.27 2.85 158.72 2.67L158.72 2.67Q158.68 1.88 158.3 0.77 157.93-0.35 157.84-0.48L157.84-0.48Q162.05-0.13 164.89-0.13L164.89-0.13Q165.68-0.13 165.95-0.35L165.95-0.35Q167.26-1.18 168.13-9.15L168.13-9.15 157.23-9.15Q155.92-5.04 152-1.84 148.08 1.36 138.89 3.5Z" transform="translate(-1.7100000381469727, 36.43000030517578)"></path></g> <!----> <!----> <!----> <!----> <!----> <!----> <!----></g></g> <g data-gra="path-slogan" fill-rule="" class="tp-slogan iconsvg-slogansvg" fill="#333" transform="translate(23.08416748046875,45.93000030517578)"><!----> <!----> <g transform="scale(1, 1)"><g transform="scale(1)"><path d="M7.17-6.09L7.17-6.09L6.09-6.09Q6-7.73 3.94-7.83L3.94-7.83Q2.02-7.78 2.02-6.33L2.02-6.33Q2.02-5.39 3.05-5.25L3.05-5.25L5.48-4.69Q7.41-4.22 7.41-2.34L7.41-2.34Q7.36 0.05 4.03 0.14L4.03 0.14Q2.20 0.14 1.45-0.61L1.45-0.61Q0.52-1.31 0.56-2.77L0.56-2.77L1.69-2.77Q1.73-0.80 4.03-0.75L4.03-0.75Q6.28-0.80 6.33-2.20L6.33-2.20Q6.52-3.38 4.45-3.75L4.45-3.75L2.67-4.13Q0.84-4.64 0.84-6.19L0.84-6.19Q0.98-8.72 3.84-8.81L3.84-8.81Q7.08-8.81 7.17-6.09ZM10.03-5.06L14.53-5.06L14.53-8.58L15.70-8.58L15.70 0L14.53 0L14.53-3.98L10.03-3.98L10.03 0L8.86 0L8.86-8.58L10.03-8.58L10.03-5.06ZM18.80-1.03L23.95-1.03L23.95 0L17.63 0L17.63-8.58L23.86-8.58L23.86-7.59L18.80-7.59L18.80-4.92L23.48-4.92L23.48-3.89L18.80-3.89L18.80-1.03ZM26.86-8.58L31.17-1.64L31.17-8.58L32.30-8.58L32.30 0L30.98 0L26.63-6.94L26.58-6.94L26.58 0L25.45 0L25.45-8.58L26.86-8.58ZM34.92-1.03L40.22-1.03L40.22 0L33.47 0L33.47-0.94L38.72-7.59L33.84-7.59L33.84-8.58L40.22-8.58L40.22-7.59L34.92-1.03ZM42.52-5.06L47.02-5.06L47.02-8.58L48.19-8.58L48.19 0L47.02 0L47.02-3.98L42.52-3.98L42.52 0L41.34 0L41.34-8.58L42.52-8.58L42.52-5.06ZM51.28-1.03L56.44-1.03L56.44 0L50.11 0L50.11-8.58L56.34-8.58L56.34-7.59L51.28-7.59L51.28-4.92L55.97-4.92L55.97-3.89L51.28-3.89L51.28-1.03ZM59.34-8.58L63.66-1.64L63.66-8.58L64.78-8.58L64.78 0L63.47 0L59.11-6.94L59.06-6.94L59.06 0L57.94 0L57.94-8.58L59.34-8.58ZM70.73-1.03L76.03-1.03L76.03 0L69.28 0L69.28-0.94L74.53-7.59L69.66-7.59L69.66-8.58L76.03-8.58L76.03-7.59L70.73-1.03ZM78.33-5.06L82.83-5.06L82.83-8.58L84-8.58L84 0L82.83 0L82.83-3.98L78.33-3.98L78.33 0L77.16 0L77.16-8.58L78.33-8.58L78.33-5.06ZM92.58-4.27L92.58-4.27Q92.39-7.64 89.58-7.83L89.58-7.83Q86.72-7.69 86.58-4.27L86.58-4.27Q86.72-0.94 89.58-0.80L89.58-0.80Q92.39-0.98 92.58-4.27ZM93.75-4.27L93.75-4.27Q93.47 0 89.58 0.14L89.58 0.14Q85.64 0 85.36-4.27L85.36-4.27Q85.59-8.72 89.58-8.81L89.58-8.81Q93.47-8.67 93.75-4.27ZM96.52-8.58L100.83-1.64L100.83-8.58L101.95-8.58L101.95 0L100.64 0L96.28-6.94L96.23-6.94L96.23 0L95.11 0L95.11-8.58L96.52-8.58ZM110.16-3.61L107.53-3.61L107.53-4.59L111.28-4.59L111.28 0L110.53 0L110.25-1.08Q109.27 0.09 107.44 0.14L107.44 0.14Q105.70 0.14 104.77-0.75L104.77-0.75Q103.36-2.06 103.41-4.36L103.41-4.36Q103.73-8.63 107.48-8.81L107.48-8.81Q110.67-8.63 111.14-6L111.14-6L110.02-6Q109.55-7.78 107.44-7.83L107.44-7.83Q104.77-7.64 104.63-4.31L104.63-4.31Q104.63-0.75 107.48-0.75L107.48-0.75Q108.52-0.75 109.27-1.31L109.27-1.31Q110.20-2.06 110.16-3.61L110.16-3.61ZM119.34-6.09L119.34-6.09L118.27-6.09Q118.17-7.73 116.11-7.83L116.11-7.83Q114.19-7.78 114.19-6.33L114.19-6.33Q114.19-5.39 115.22-5.25L115.22-5.25L117.66-4.69Q119.58-4.22 119.58-2.34L119.58-2.34Q119.53 0.05 116.20 0.14L116.20 0.14Q114.38 0.14 113.63-0.61L113.63-0.61Q112.69-1.31 112.73-2.77L112.73-2.77L113.86-2.77Q113.91-0.80 116.20-0.75L116.20-0.75Q118.45-0.80 118.50-2.20L118.50-2.20Q118.69-3.38 116.63-3.75L116.63-3.75L114.84-4.13Q113.02-4.64 113.02-6.19L113.02-6.19Q113.16-8.72 116.02-8.81L116.02-8.81Q119.25-8.81 119.34-6.09ZM122.20-5.06L126.70-5.06L126.70-8.58L127.88-8.58L127.88 0L126.70 0L126.70-3.98L122.20-3.98L122.20 0L121.03 0L121.03-8.58L122.20-8.58L122.20-5.06ZM129.84-8.58L131.02-8.58L131.02 0L129.84 0L129.84-8.58Z" transform="translate(-0.5602678571428572, 8.8125)"></path></g></g></g></g></g><defs v-gra="od"></defs></svg>